<?xml version="1.0" encoding="iso-8859-1"?>
<!-- Generator: Adobe Illustrator 19.0.0, SVG Export Plug-In . SVG Version: 6.00 Build 0)  -->
<svg version="1.1" id="Capa_1" xmlns="http://www.w3.org/2000/svg" xmlns:xlink="http://www.w3.org/1999/xlink" x="0px" y="0px"
	 viewBox="0 0 479.82 479.82" style="enable-background:new 0 0 479.82 479.82;" xml:space="preserve">
<g>
	<g>
		<path d="M144,111.751c-4.418,0-8,3.582-8,8v16c0,4.418,3.582,8,8,8s8-3.582,8-8v-16C152,115.333,148.418,111.751,144,111.751z"/>
	</g>
</g>
<g>
	<g>
		<path d="M64.808,165.247l-11.32-11.32c-3.069-3.178-8.134-3.266-11.312-0.197s-3.266,8.134-0.197,11.312
			c0.064,0.067,0.13,0.132,0.197,0.197l11.32,11.32c1.5,1.5,3.534,2.344,5.656,2.344c4.418-0.001,7.999-3.583,7.998-8.002
			C67.15,168.781,66.307,166.747,64.808,165.247z"/>
	</g>
</g>
<g>
	<g>
		<path d="M24,247.751H8c-4.418,0-8,3.582-8,8s3.582,8,8,8h16c4.418,0,8-3.582,8-8S28.418,247.751,24,247.751z"/>
	</g>
</g>
<g>
	<g>
		<path d="M64.604,334.951c-3.1-2.994-8.015-2.994-11.116,0l-11.312,11.312c-3.123,3.124-3.123,8.188,0,11.312
			c3.124,3.123,8.188,3.123,11.312,0L64.8,346.263C67.87,343.085,67.782,338.021,64.604,334.951z"/>
	</g>
</g>
<g>
	<g>
		<path d="M246.029,153.927c-3.069-3.178-8.134-3.266-11.312-0.197c-0.067,0.064-0.132,0.13-0.197,0.197h-0.008l-11.312,11.32
			c-3.178,3.069-3.266,8.134-0.197,11.312c3.069,3.178,8.134,3.266,11.312,0.197c0.067-0.064,0.132-0.13,0.197-0.197l11.32-11.32
			C249.01,162.17,249.098,157.105,246.029,153.927z"/>
	</g>
</g>
<g>
	<g>
		<path d="M423.64,335.919c-4.471-48.426-47.352-84.059-95.778-79.588c-4.094,0.378-8.156,1.042-12.158,1.988
			c-19.543-26.673-50.638-42.424-83.704-42.4c-0.224,0-0.448,0-0.672,0c-21.949-48.238-78.847-69.55-127.086-47.601
			c-48.238,21.949-69.55,78.847-47.601,127.086c5.83,12.814,14.409,24.188,25.127,33.315
			c-26.125,29.902-23.064,75.321,6.838,101.446c13.124,11.467,29.966,17.776,47.394,17.754h288
			c30.928-0.099,55.919-25.252,55.82-56.18C479.721,360.811,454.568,335.82,423.64,335.919z M64,255.751
			c0.05-44.183,35.907-79.96,80.09-79.91c29.238,0.033,56.128,16.013,70.134,41.678c-43.895,7.873-77.992,42.674-84.968,86.72
			c-12.866,1.215-25.163,5.893-35.584,13.536C74.954,302.617,64.056,279.837,64,255.751z M431.228,431.313
			c-2.386,0.42-4.805,0.623-7.228,0.606H136c-30.928,0.02-56.016-25.036-56.036-55.964c-0.02-30.928,25.036-56.016,55.964-56.036
			c4.333,0.249,8.075-3.002,8.432-7.328c4.002-48.392,46.476-84.377,94.867-80.374c27.074,2.239,51.592,16.868,66.421,39.63
			c1.953,2.986,5.647,4.317,9.056,3.264c38.021-11.735,78.357,9.574,90.092,47.595c2.099,6.802,3.179,13.878,3.204,20.997
			c0,0.192,0,0.744,0,0.944c0.003,4.418,3.588,7.997,8.006,7.994c0.448,0,0.896-0.038,1.338-0.114
			c21.756-3.834,42.501,10.695,46.335,32.451C467.513,406.734,452.984,427.479,431.228,431.313z"/>
	</g>
</g>
<g>
	<g>
		<path d="M416,55.919c-2.099,0-4.195,0.179-6.264,0.536c-12.901-23.098-42.083-31.365-65.182-18.464
			c-12.703,7.095-21.492,19.578-23.89,33.928c-17.673-0.183-32.149,13.995-32.332,31.668c-0.183,17.673,13.995,32.149,31.668,32.332
			h96c22.091,0,40-17.909,40-40S438.091,55.919,416,55.919z M416,119.919h-96c-8.837,0-16-7.163-16-16s7.163-16,16-16
			c1.852,0.021,3.686,0.37,5.416,1.032c4.151,1.514,8.743-0.623,10.257-4.773c0.356-0.976,0.519-2.012,0.479-3.05
			c0-0.272-0.112-0.936-0.152-1.208c0-17.673,14.327-32,32-32c13.332-0.034,25.259,8.28,29.84,20.8
			c1.546,4.068,6.06,6.155,10.16,4.696c2.561-0.955,5.267-1.461,8-1.496c13.255,0,24,10.745,24,24S429.255,119.919,416,119.919z"/>
	</g>
</g>
<g>
</g>
<g>
</g>
<g>
</g>
<g>
</g>
<g>
</g>
<g>
</g>
<g>
</g>
<g>
</g>
<g>
</g>
<g>
</g>
<g>
</g>
<g>
</g>
<g>
</g>
<g>
</g>
<g>
</g>
</svg>
